<svg width="1532" height="434" viewBox="0 0 1532 434" fill="none" xmlns="http://www.w3.org/2000/svg">
<path d="M596.94 291.279C639.337 291.279 657.8 270.765 657.8 248.883C657.8 225.177 640.249 213.552 612.896 208.31L580.757 201.927C558.191 197.141 548.161 191.898 548.161 174.575C548.161 157.935 561.838 149.274 592.154 149.274C625.433 149.274 639.109 161.126 639.109 183.237V185.972H655.521V184.604C655.521 156.796 636.374 134.002 593.293 134.002C549.529 134.002 531.75 154.972 531.75 175.715C531.75 201.016 551.581 211.501 576.426 216.288L608.793 222.442C631.131 227.001 641.388 233.155 641.388 250.25C641.388 267.574 627.484 276.008 596.94 276.008C561.154 276.008 547.478 264.155 547.478 242.273V239.309H531.066V240.677C531.066 269.853 552.036 291.279 596.94 291.279ZM694.986 327.75V255.949H695.214C700.457 277.603 718.464 291.279 743.309 291.279C779.095 291.279 798.926 266.89 798.926 232.699C798.926 198.508 778.867 174.119 743.765 174.119C717.096 174.119 700.229 187.795 695.214 208.082H693.39V176.398H678.802V327.75H694.986ZM694.986 234.751V232.699C694.986 204.891 711.398 189.163 739.434 189.163C764.963 189.163 782.514 200.104 782.514 232.699C782.514 265.294 765.191 276.463 738.978 276.463C712.537 276.463 694.986 261.419 694.986 234.751ZM873.977 291.279C910.903 291.279 935.292 266.89 935.292 232.699C935.292 198.508 910.903 174.119 873.977 174.119C837.278 174.119 812.889 198.508 812.889 232.699C812.889 266.89 837.278 291.279 873.977 291.279ZM873.977 276.691C842.977 276.691 828.845 260.052 828.845 232.699C828.845 205.574 842.977 188.707 873.977 188.707C904.976 188.707 919.336 205.574 919.336 232.699C919.336 260.052 904.976 276.691 873.977 276.691ZM1025.89 289V274.184H1005.38C988.964 274.184 981.214 269.853 981.214 254.125V190.303H1025.89V176.398H981.214V149.502H964.803V176.398H944.744V190.303H964.803V253.214C964.803 279.655 979.163 289 1001.5 289H1025.89ZM1059.82 162.038V136.281H1043.64V162.038H1059.82ZM1059.82 289V176.398H1043.64V289H1059.82ZM1149.27 289L1203.06 176.398H1185.51L1140.15 273.044H1138.79L1093.2 176.398H1075.65L1129.44 289H1149.27ZM1235.23 162.038V136.281H1219.04V162.038H1235.23ZM1235.23 289V176.398H1219.04V289H1235.23ZM1331.52 289V274.184H1311C1294.59 274.184 1286.84 269.853 1286.84 254.125V190.303H1331.52V176.398H1286.84V149.502H1270.43V176.398H1250.37V190.303H1270.43V253.214C1270.43 279.655 1284.79 289 1307.13 289H1331.52ZM1364.08 327.75C1382.77 327.75 1393.25 322.051 1401.46 304.728L1462.55 176.398H1444.77L1413.54 243.184L1401.46 270.993H1400.09L1387.56 243.412L1354.5 176.398H1336.73L1392.57 288.772L1387.1 300.169C1382.77 309.514 1378.44 312.934 1367.04 312.934H1349.95V327.75H1364.08Z" fill="black"/>
<rect x="68" y="26" width="379" height="379" rx="186.313" fill="#EFFFF8"/>
<rect x="109.725" y="67.1453" width="296.13" height="296.13" rx="148.065" fill="#D6F9E9"/>
<rect x="159.563" y="116.404" width="196.454" height="197.613" rx="98.2271" fill="#C5F3DE"/>
<path d="M228.536 201.369C235.318 201.369 238.904 197.783 241.521 195.162C243.873 192.81 245.03 191.768 247.723 191.768C250.416 191.768 251.572 192.81 253.925 195.162C256.541 197.783 260.127 201.369 266.914 201.369C273.707 201.369 277.297 197.783 279.923 195.162C282.28 192.81 283.437 191.768 286.14 191.768C288.842 191.768 289.999 192.81 292.356 195.162C294.977 197.783 298.568 201.369 305.36 201.369V191.768C302.658 191.768 301.501 190.727 299.144 188.375C296.523 185.754 292.932 182.168 286.14 182.168C279.347 182.168 275.761 185.754 273.135 188.37C270.779 190.727 269.626 191.768 266.914 191.768C264.216 191.768 263.064 190.727 260.712 188.375C258.096 185.754 254.51 182.168 247.723 182.168C240.935 182.168 237.349 185.754 234.733 188.375C232.381 190.727 231.229 191.768 228.536 191.768C225.843 191.768 224.691 190.727 222.338 188.375C219.722 185.754 216.136 182.168 209.354 182.168V191.768C212.046 191.768 213.199 192.81 215.551 195.162C218.167 197.783 221.753 201.369 228.536 201.369ZM228.536 225.371C235.318 225.371 238.904 221.785 241.521 219.164C243.873 216.812 245.03 215.77 247.723 215.77C250.416 215.77 251.572 216.812 253.925 219.164C256.541 221.785 260.127 225.371 266.914 225.371C273.707 225.371 277.297 221.785 279.923 219.164C282.28 216.812 283.437 215.77 286.14 215.77C288.842 215.77 289.999 216.812 292.356 219.164C294.977 221.785 298.568 225.371 305.36 225.371V215.77C302.658 215.77 301.501 214.728 299.144 212.376C296.523 209.755 292.932 206.169 286.14 206.169C279.347 206.169 275.761 209.755 273.135 212.371C270.779 214.728 269.626 215.77 266.914 215.77C264.216 215.77 263.064 214.728 260.712 212.376C258.096 209.755 254.51 206.169 247.723 206.169C240.935 206.169 237.349 209.755 234.733 212.376C232.381 214.728 231.229 215.77 228.536 215.77C225.843 215.77 224.691 214.728 222.338 212.376C219.722 209.755 216.136 206.169 209.354 206.169V215.77C212.046 215.77 213.199 216.812 215.551 219.164C218.167 221.785 221.753 225.371 228.536 225.371ZM228.536 249.372C235.318 249.372 238.904 245.786 241.521 243.166C243.873 240.813 245.03 239.772 247.723 239.772C250.416 239.772 251.572 240.813 253.925 243.166C256.541 245.786 260.127 249.372 266.914 249.372C273.707 249.372 277.297 245.786 279.923 243.166C282.28 240.813 283.437 239.772 286.14 239.772C288.842 239.772 289.999 240.813 292.356 243.166C294.977 245.786 298.568 249.372 305.36 249.372V239.772C302.658 239.772 301.501 238.73 299.144 236.378C296.523 233.757 292.932 230.171 286.14 230.171C279.347 230.171 275.761 233.757 273.135 236.373C270.779 238.73 269.626 239.772 266.914 239.772C264.216 239.772 263.064 238.73 260.712 236.378C258.096 233.757 254.51 230.171 247.723 230.171C240.935 230.171 237.349 233.757 234.733 236.378C232.381 238.73 231.229 239.772 228.536 239.772C225.843 239.772 224.691 238.73 222.338 236.378C219.722 233.757 216.136 230.171 209.354 230.171V239.772C212.046 239.772 213.199 240.813 215.551 243.166C218.167 245.786 221.753 249.372 228.536 249.372Z" fill="#3BCE90"/>
</svg>
