<svg width="1532" height="434" viewBox="0 0 1532 434" fill="none" xmlns="http://www.w3.org/2000/svg">
<path d="M596.94 291.279C639.337 291.279 657.8 270.765 657.8 248.883C657.8 225.177 640.249 213.552 612.896 208.31L580.757 201.927C558.191 197.141 548.161 191.898 548.161 174.575C548.161 157.935 561.838 149.274 592.154 149.274C625.433 149.274 639.109 161.126 639.109 183.237V185.972H655.521V184.604C655.521 156.796 636.374 134.002 593.293 134.002C549.529 134.002 531.75 154.972 531.75 175.715C531.75 201.016 551.581 211.501 576.426 216.288L608.793 222.442C631.131 227.001 641.388 233.155 641.388 250.25C641.388 267.574 627.484 276.008 596.94 276.008C561.154 276.008 547.478 264.155 547.478 242.273V239.309H531.066V240.677C531.066 269.853 552.036 291.279 596.94 291.279ZM694.986 327.75V255.949H695.214C700.457 277.603 718.464 291.279 743.309 291.279C779.095 291.279 798.926 266.89 798.926 232.699C798.926 198.508 778.867 174.119 743.765 174.119C717.096 174.119 700.229 187.795 695.214 208.082H693.39V176.398H678.802V327.75H694.986ZM694.986 234.751V232.699C694.986 204.891 711.398 189.163 739.434 189.163C764.963 189.163 782.514 200.104 782.514 232.699C782.514 265.294 765.191 276.463 738.978 276.463C712.537 276.463 694.986 261.419 694.986 234.751ZM873.977 291.279C910.903 291.279 935.292 266.89 935.292 232.699C935.292 198.508 910.903 174.119 873.977 174.119C837.278 174.119 812.889 198.508 812.889 232.699C812.889 266.89 837.278 291.279 873.977 291.279ZM873.977 276.691C842.977 276.691 828.845 260.052 828.845 232.699C828.845 205.574 842.977 188.707 873.977 188.707C904.976 188.707 919.336 205.574 919.336 232.699C919.336 260.052 904.976 276.691 873.977 276.691ZM1025.89 289V274.184H1005.38C988.964 274.184 981.214 269.853 981.214 254.125V190.303H1025.89V176.398H981.214V149.502H964.803V176.398H944.744V190.303H964.803V253.214C964.803 279.655 979.163 289 1001.5 289H1025.89ZM1059.82 162.038V136.281H1043.64V162.038H1059.82ZM1059.82 289V176.398H1043.64V289H1059.82ZM1149.27 289L1203.06 176.398H1185.51L1140.15 273.044H1138.79L1093.2 176.398H1075.65L1129.44 289H1149.27ZM1235.23 162.038V136.281H1219.04V162.038H1235.23ZM1235.23 289V176.398H1219.04V289H1235.23ZM1331.52 289V274.184H1311C1294.59 274.184 1286.84 269.853 1286.84 254.125V190.303H1331.52V176.398H1286.84V149.502H1270.43V176.398H1250.37V190.303H1270.43V253.214C1270.43 279.655 1284.79 289 1307.13 289H1331.52ZM1364.08 327.75C1382.77 327.75 1393.25 322.051 1401.46 304.728L1462.55 176.398H1444.77L1413.54 243.184L1401.46 270.993H1400.09L1387.56 243.412L1354.5 176.398H1336.73L1392.57 288.772L1387.1 300.169C1382.77 309.514 1378.44 312.934 1367.04 312.934H1349.95V327.75H1364.08Z" fill="black"/>
<rect x="68" y="27" width="379" height="379" rx="186.313" fill="#EFFFF8"/>
<rect x="109.725" y="68.1453" width="296.13" height="296.13" rx="148.065" fill="#D6F9E9"/>
<rect x="159.563" y="117.404" width="196.454" height="197.613" rx="98.2271" fill="#C5F3DE"/>
<path fill-rule="evenodd" clip-rule="evenodd" d="M322.765 198.729C322.738 205.329 315.818 209.37 310.022 206.091C306.092 203.867 302.069 201.851 297.878 200.171C289.552 196.833 280.922 194.586 272.102 193.03C265.963 191.948 259.778 191.231 253.558 190.857C247.092 190.469 240.621 190.423 234.145 190.758C226.725 191.142 219.363 191.957 212.098 193.526C209.418 194.105 206.768 194.835 204.117 195.544C202.492 195.978 200.889 196.033 199.27 195.56C195.726 194.523 193.282 191.347 193.177 187.628C193.075 184.016 195.304 180.658 198.805 179.504C201.369 178.659 204 177.995 206.632 177.386C213.148 175.881 219.756 174.95 226.416 174.341C233.488 173.696 240.573 173.488 247.662 173.691C265.128 174.191 282.255 176.745 298.829 182.466C305.587 184.8 312.091 187.696 318.274 191.303C320.477 192.589 321.956 194.401 322.52 196.908C322.654 197.503 322.686 198.121 322.765 198.729" fill="#3BCE90"/>
<path fill-rule="evenodd" clip-rule="evenodd" d="M240.259 219.086C229.848 219.13 219.184 220.42 208.767 223.512C207.07 224.015 205.367 224.049 203.704 223.375C200.997 222.279 199.236 219.567 199.332 216.697C199.431 213.704 201.257 211.096 204.143 210.215C207.079 209.319 210.06 208.541 213.058 207.876C220.438 206.237 227.917 205.37 235.475 205.083C251.734 204.466 267.617 206.569 283.112 211.536C290.948 214.047 298.442 217.335 305.521 221.545C305.874 221.755 306.224 221.969 306.573 222.182C310.266 224.438 310.706 228.979 308.946 231.873C306.932 235.181 302.745 236.21 299.265 234.247C297.302 233.14 295.362 231.986 293.355 230.963C284.155 226.273 274.4 223.234 264.278 221.318C256.485 219.842 248.618 219.121 240.259 219.086" fill="#3BCE90"/>
<path fill-rule="evenodd" clip-rule="evenodd" d="M241.887 234.526C253.87 234.652 265.594 236.272 276.971 240.109C283.247 242.225 289.239 244.963 294.931 248.354C295.424 248.647 295.925 248.937 296.38 249.282C298.676 251.026 299.273 254.184 297.795 256.67C296.361 259.081 293.32 260.051 290.718 258.902C290.196 258.672 289.707 258.362 289.214 258.07C279.568 252.352 269.159 248.811 258.094 247.116C251.305 246.076 244.478 245.716 237.622 245.985C228.754 246.334 219.997 247.564 211.333 249.483C210.458 249.676 209.558 249.852 208.668 249.862C205.985 249.891 203.721 247.988 203.25 245.409C202.751 242.677 204.105 240.117 206.61 239.11C207.139 238.897 207.703 238.761 208.262 238.636C215.348 237.045 222.501 235.842 229.739 235.229C233.779 234.887 237.837 234.753 241.887 234.526" fill="#3BCE90"/>
</svg>
