<svg width="848" height="848" viewBox="0 0 848 848" fill="none" xmlns="http://www.w3.org/2000/svg">
<g clip-path="url(#clip0_129_262)">
<rect x="-0.5" width="848" height="848" rx="416.868" fill="#EFFFF8"/>
<rect x="92.8582" y="92.0611" width="662.581" height="662.581" rx="331.29" fill="#D6F9E9"/>
<rect x="204.369" y="202.275" width="439.56" height="442.153" rx="219.78" fill="#C5F3DE"/>
<path fill-rule="evenodd" clip-rule="evenodd" d="M569.528 384.238C569.468 399.004 553.986 408.046 541.018 400.709C532.224 395.733 523.222 391.223 513.845 387.463C495.215 379.995 475.907 374.969 456.173 371.487C442.437 369.064 428.597 367.46 414.681 366.624C400.213 365.755 385.734 365.653 371.244 366.403C354.642 367.262 338.17 369.085 321.916 372.596C315.918 373.892 309.99 375.525 304.058 377.11C300.421 378.082 296.836 378.206 293.213 377.146C285.283 374.826 279.816 367.721 279.581 359.4C279.353 351.319 284.339 343.805 292.174 341.223C297.909 339.333 303.796 337.846 309.685 336.484C324.265 333.115 339.049 331.032 353.952 329.67C369.774 328.227 385.626 327.762 401.489 328.216C440.569 329.334 478.888 335.05 515.973 347.851C531.093 353.072 545.647 359.551 559.48 367.622C564.409 370.499 567.72 374.554 568.98 380.163C569.28 381.495 569.352 382.878 569.528 384.238" fill="#3BCE90"/>
<path fill-rule="evenodd" clip-rule="evenodd" d="M384.923 429.786C361.63 429.883 337.769 432.771 314.463 439.688C310.665 440.815 306.854 440.89 303.133 439.383C297.078 436.93 293.138 430.862 293.351 424.441C293.574 417.743 297.658 411.909 304.115 409.938C310.686 407.932 317.355 406.192 324.063 404.703C340.575 401.035 357.31 399.096 374.22 398.454C410.599 397.074 446.137 401.78 480.807 412.892C498.339 418.51 515.108 425.867 530.947 435.288C531.737 435.757 532.519 436.236 533.3 436.714C541.562 441.761 542.548 451.921 538.609 458.395C534.104 465.798 524.735 468.1 516.949 463.709C512.557 461.231 508.216 458.648 503.725 456.36C483.14 445.867 461.314 439.066 438.666 434.779C421.229 431.478 403.628 429.865 384.923 429.786" fill="#3BCE90"/>
<path fill-rule="evenodd" clip-rule="evenodd" d="M388.566 464.332C415.38 464.614 441.61 468.238 467.067 476.824C481.108 481.559 494.517 487.685 507.251 495.271C508.355 495.928 509.475 496.575 510.493 497.349C515.632 501.251 516.967 508.316 513.658 513.878C510.452 519.273 503.646 521.444 497.825 518.874C496.658 518.359 495.562 517.665 494.459 517.01C472.877 504.218 449.587 496.294 424.831 492.502C409.639 490.176 394.364 489.369 379.025 489.972C359.182 490.752 339.589 493.505 320.204 497.797C318.246 498.229 316.232 498.623 314.24 498.645C308.238 498.711 303.171 494.453 302.118 488.682C301.002 482.57 304.03 476.841 309.636 474.588C310.819 474.112 312.082 473.808 313.331 473.527C329.187 469.968 345.192 467.276 361.386 465.906C370.426 465.141 379.505 464.841 388.566 464.332" fill="#3BCE90"/>
</g>
<defs>
<clipPath id="clip0_129_262">
<rect width="848" height="848" fill="white"/>
</clipPath>
</defs>
</svg>
