<svg width="848" height="848" viewBox="0 0 848 848" fill="none" xmlns="http://www.w3.org/2000/svg">
<g clip-path="url(#clip0_129_262)">
<rect width="848" height="848" rx="416.868" fill="#EFFFF8"/>
<rect x="93.3579" y="92.0612" width="662.581" height="662.581" rx="331.291" fill="#D6F9E9"/>
<rect x="204.869" y="202.275" width="439.56" height="442.153" rx="219.78" fill="#C5F3DE"/>
<path d="M359.193 392.383C374.369 392.383 382.393 384.359 388.246 378.495C393.509 373.232 396.098 370.901 402.123 370.901C408.149 370.901 410.737 373.232 416 378.495C421.854 384.359 429.877 392.383 445.064 392.383C460.262 392.383 468.296 384.359 474.171 378.495C479.445 373.232 482.033 370.901 488.08 370.901C494.127 370.901 496.715 373.232 501.989 378.495C507.853 384.359 515.887 392.383 531.085 392.383V370.901C525.038 370.901 522.45 368.571 517.176 363.308C511.312 357.443 503.278 349.42 488.08 349.42C472.882 349.42 464.859 357.443 458.984 363.297C453.71 368.571 451.132 370.901 445.064 370.901C439.028 370.901 436.45 368.571 431.187 363.308C425.334 357.443 417.31 349.42 402.123 349.42C386.936 349.42 378.913 357.443 373.059 363.308C367.796 368.571 365.218 370.901 359.193 370.901C353.168 370.901 350.59 368.571 345.327 363.308C339.473 357.443 331.45 349.42 316.274 349.42V370.901C322.299 370.901 324.877 373.232 330.14 378.495C335.993 384.359 344.017 392.383 359.193 392.383ZM359.193 446.085C374.369 446.085 382.393 438.062 388.246 432.198C393.509 426.935 396.098 424.604 402.123 424.604C408.149 424.604 410.737 426.935 416 432.198C421.854 438.062 429.877 446.085 445.064 446.085C460.262 446.085 468.296 438.062 474.171 432.198C479.445 426.935 482.033 424.604 488.08 424.604C494.127 424.604 496.715 426.935 501.989 432.198C507.853 438.062 515.887 446.085 531.085 446.085V424.604C525.038 424.604 522.45 422.274 517.176 417.011C511.312 411.146 503.278 403.123 488.08 403.123C472.882 403.123 464.859 411.146 458.984 417C453.71 422.274 451.132 424.604 445.064 424.604C439.028 424.604 436.45 422.274 431.187 417.011C425.334 411.146 417.31 403.123 402.123 403.123C386.936 403.123 378.913 411.146 373.059 417.011C367.796 422.274 365.218 424.604 359.193 424.604C353.168 424.604 350.59 422.274 345.327 417.011C339.473 411.146 331.45 403.123 316.274 403.123V424.604C322.299 424.604 324.877 426.935 330.14 432.198C335.993 438.062 344.017 446.085 359.193 446.085ZM359.193 499.788C374.369 499.788 382.393 491.765 388.246 485.901C393.509 480.638 396.098 478.307 402.123 478.307C408.149 478.307 410.737 480.638 416 485.901C421.854 491.765 429.877 499.788 445.064 499.788C460.262 499.788 468.296 491.765 474.171 485.901C479.445 480.638 482.033 478.307 488.08 478.307C494.127 478.307 496.715 480.638 501.989 485.901C507.853 491.765 515.887 499.788 531.085 499.788V478.307C525.038 478.307 522.45 475.976 517.176 470.714C511.312 464.849 503.278 456.826 488.08 456.826C472.882 456.826 464.859 464.849 458.984 470.703C453.71 475.976 451.132 478.307 445.064 478.307C439.028 478.307 436.45 475.976 431.187 470.714C425.334 464.849 417.31 456.826 402.123 456.826C386.936 456.826 378.913 464.849 373.059 470.714C367.796 475.976 365.218 478.307 359.193 478.307C353.168 478.307 350.59 475.976 345.327 470.714C339.473 464.849 331.45 456.826 316.274 456.826V478.307C322.299 478.307 324.877 480.638 330.14 485.901C335.993 491.765 344.017 499.788 359.193 499.788Z" fill="#3BCE90"/>
</g>
<defs>
<clipPath id="clip0_129_262">
<rect width="848" height="848" fill="white"/>
</clipPath>
</defs>
</svg>
